<svg xmlns="http://www.w3.org/2000/svg" version="1.1" xmlns:xlink="http://www.w3.org/1999/xlink" viewBox="0 0 10.649584537102514 10.657998004553008"><g transform="matrix(1,0,0,1,3.2171350028033454,3.1264621336233445)"><g><path d=" M -1.8737131016157675 1.630352805569557 Q -1.823613544970765 1.597511757718214 -1.7627847701568014 1.6020790495451143 Q -1.673037397480461 1.6088176768307048 -1.626822718427275 1.6744622001362404 Q -1.5806080393740891 1.7401067234417762 -1.588993886662824 1.8517923427723328 L -1.6151247858036137 2.199812710150585 L -2.318145871768279 2.14702679641346 L -2.292838582629061 1.8099755523623156 Q -2.2847522298863523 1.7022787051507071 -2.2322822358138175 1.6445452683741895 Q -2.1798122417412826 1.586811831597672 -2.0930564481541536 1.593325837973743 Q -2.0312304803104526 1.5979680034371497 -1.9922803627628256 1.6334840328186282 Q -1.9533302452151986 1.6690000622001067 -1.9424155261404963 1.723971590353509 Q -1.9238126582607697 1.6631938534209 -1.8737131016157675 1.630352805569557 M -2.024256590686601 1.9725415808068227 L -2.0168441006724516 1.8738194708628484 Q -2.011303451570966 1.800027186662302 -2.0721322263849298 1.795459894835402 Q -2.1349553872583678 1.7907428557354885 -2.1404960363598535 1.8645351399360348 L -2.1479085263740028 1.9632572498800092 L -2.024256590686601 1.9725415808068227 M -1.805755775927259 1.8004183867000902 Q -1.8376659528788468 1.7980224303318804 -1.8560782702962557 1.8161948425911425 Q -1.8744905877136646 1.8343672548504046 -1.8771860386279007 1.8702662039209408 L -1.885646759553142 1.9829490162812347 L -1.7580060517467917 1.9925328417540744 L -1.7494704571850437 1.8788528363640435 Q -1.7439298080835581 1.8050605521634973 -1.805755775927259 1.8004183867000902 M -2.1786300714461992 1.125684879480739 L -1.7844129880704755 1.234652265311261 Q -1.7294731989447634 1.2498384291067126 -1.6925334304627189 1.2325553881563203 Q -1.6555936619806741 1.215272347205928 -1.6412067699639303 1.1632241259289375 Q -1.6268198779471867 1.1111759046519472 -1.6498546823872746 1.076277512362231 Q -1.6728894868273623 1.041379120072515 -1.7268654200035005 1.0264593802032995 L -2.121082503379224 0.9174919943727774 L -2.068863413836969 0.7285762282562938 L -1.6746463304612456 0.8375436140868158 Q -1.5811523033525776 0.8633867349317073 -1.5260515517824416 0.9211548678114028 Q -1.4709508002123055 0.978923000691098 -1.4564806567516437 1.0560664705911997 Q -1.442010513290982 1.1332099404913012 -1.4649229709472775 1.216101552154656 Q -1.487835428603573 1.2989931638180112 -1.5390720738848023 1.3548618149591074 Q -1.5903087191660312 1.4107304661002036 -1.666108244897142 1.429722093174751 Q -1.7419077706282526 1.4487137202492981 -1.8363656536864945 1.4226041754781706 L -2.230582737062218 1.3136367896476486 L -2.1786300714461992 1.125684879480739 M -1.733790056060621 -0.0008096911282058361 L -1.5936887006516582 0.06780233560597204 L -1.6763749892800264 0.23664243058600398 L -1.1833259885138694 0.4781039862082067 L -1.2695308426157852 0.654128766081006 L -1.7625798433819422 0.41266721045880317 L -1.8443864906419236 0.5797111342156432 L -1.9844878460508861 0.5110991074814655 L -1.733790056060621 -0.0008096911282058361 M -1.3028096723843294 -0.6235573078188956 L -1.1764443704284842 -0.5320815708084288 L -1.2866843611846877 -0.3797951812718974 L -0.8419757023785405 -0.057870952946600884 L -0.9569067565711782 0.10089570848510199 L -1.4016154153773255 -0.22102851984019456 L -1.5106826402744205 -0.07036219827745616 L -1.6370479422302657 -0.16183793528792295 L -1.3028096723843294 -0.6235573078188956 M -0.9049596960985318 -0.8143811785731321 L -0.824036515565732 -0.7326717002217443 L -0.6641701448782342 -0.8909996621337438 L -0.5593218501009546 -0.7851325988784675 L -0.7191882207884523 -0.626804636966468 L -0.6298208822870126 -0.5365689521784137 L -0.4486389955078485 -0.7160073090120131 L -0.3381612620848089 -0.6044561081322926 L -0.6586045206628599 -0.2870965044775735 L -1.1546988013204582 -0.7880111326317332 L -0.8342555427424072 -1.1053707362864522 L -0.7237778093193676 -0.9938195354067315 L -0.9049596960985318 -0.8143811785731321 M 0.0522327173966492 -0.8947520351633813 L -0.21136308636659373 -1.0278582042105366 L -0.2285847761150043 -1.015840991463419 L -0.07980023734116526 -0.8026200707688117 L -0.24053600832633074 -0.6904594184623792 L -0.6439710076938558 -1.2686161457304488 L -0.3905661442529572 -1.4454408475808962 Q -0.3208593047951048 -1.4940819467954203 -0.25559323473814294 -1.503652218438365 Q -0.1903271646811811 -1.5132224900813096 -0.13625396711313909 -1.48815579295609 Q -0.08218076954509707 -1.4630890958308702 -0.04555688307769051 -1.4106039461214284 Q -0.0043550108018581835 -1.3515581526983065 -0.00556066081825346 -1.2842599624697575 Q -0.006766310834648626 -1.2169617722412085 -0.055930716915386536 -1.1546090563843325 L 0.23183033905864536 -1.020074396669038 L 0.0522327173966492 -0.8947520351633813 M -0.30526603840613675 -1.1257317736675627 L -0.225718233377764 -1.1812398515947258 Q -0.19291501480936293 -1.2041297806368547 -0.18738612182017364 -1.2311562739779098 Q -0.18185722883098443 -1.258182767318965 -0.20245816496890062 -1.287705664030526 Q -0.2219146046547103 -1.315588399813667 -0.24988509457905378 -1.3198488802316715 Q -0.2778555845033973 -1.3241093606496757 -0.3098387226075884 -1.3017916798335998 L -0.3893865276359611 -1.2462836019064367 L -0.30526603840613675 -1.1257317736675627 M 0.4729497304682248 -1.9142424614396394 L 0.5388561378022066 -1.7728481706343622 L 0.28325876596189803 -1.6537096650690875 L 0.3356459102530117 -1.5413193313520723 L 0.5241716313267145 -1.6291945411307147 L 0.5871206998700689 -1.4941448659384948 L 0.39859497879636613 -1.4062696561598524 L 0.5151986225411032 -1.156110526273593 L 0.33754938537549856 -1.0733050401360262 L 0.039703121462311586 -1.7122984697367976 L 0.4729497304682248 -1.9142424614396394 M 1.0264540230390355 -1.5108313148400487 L 1.2365592047227287 -1.5726116728000201 L 1.278874518393942 -1.4287040141125589 L 0.8807299960252994 -1.3116316462888689 L 0.6818480217705971 -1.9879976421199368 L 0.8698873624555464 -2.043289651983655 L 1.0264540230390355 -1.5108313148400487 M 1.9389979136797015 -2.2312286716035654 L 1.7488164373810482 -1.724576911443922 L 1.7749534137970298 -1.5021070068189808 L 1.5792990780331304 -1.4791204695245685 L 1.553162101617149 -1.7015903741495098 L 1.2507316462462896 -2.1503674008166227 L 1.4732015508712308 -2.1765043772326043 L 1.6280922908651578 -1.9208310335611654 L 1.7195075167059872 -2.205441743978869 L 1.9389979136797015 -2.2312286716035654 M 2.8980830043275527 -2.1576658432513005 L 2.879173065136498 -2.0028161929456227 L 2.5992525434300813 -2.036999544560221 L 2.584221566124371 -1.9139139250864776 L 2.790687766531941 -1.8887006728317384 L 2.7726263502533057 -1.7407994042705464 L 2.566160149845736 -1.7660126565252856 L 2.5327041035846394 -1.4920478905998562 L 2.3381494147390445 -1.5158065321475913 L 2.4236077937755405 -2.215607836413634 L 2.8980830043275527 -2.1576658432513005 M 3.2867116167928363 -2.0627878675924136 L 3.1142911732967944 -1.3791972074275543 L 2.9242432734495427 -1.4271325363995033 L 3.0966637169455846 -2.1107231965643627 L 3.2867116167928363 -2.0627878675924136 M 3.858436694785122 -1.0954102540624682 L 3.677915742568919 -1.1717528097634353 L 3.59099226510847 -1.6362970047182133 L 3.4375281480361175 -1.2734130497529883 L 3.2570071958199143 -1.3497556054539555 L 3.5316066946422704 -1.9990784182724415 L 3.7121276468584736 -1.9227358625714746 L 3.7971036101428775 -1.4535865412846505 L 3.952515241391275 -1.8210756225819213 L 4.133036193607478 -1.7447330668809542 L 3.858436694785122 -1.0954102540624682 M 4.41691794535218 -0.8613525454259284 L 4.212475302451429 -1.0052386314931905 L 4.1152124211395735 -0.9330657008410683 L 3.9467516833893534 -1.0516278357604922 L 4.562677483001005 -1.480241192263468 L 4.747493632183286 -1.3501681704586632 L 4.551084135803977 -0.6263005653456657 L 4.381805627482154 -0.7454382446093586 L 4.41691794535218 -0.8613525454259284 M 4.46317883898399 -1.012219804035563 L 4.532252386035505 -1.2424128645254968 L 4.339695482671936 -1.0991270000201894 L 4.46317883898399 -1.012219804035563 M 5.064500743082699 -0.07765114800717254 L 4.931712120947614 -0.2218148807261388 L 5.044684979692591 -0.6807202448122296 L 4.754886455757526 -0.41378801460190523 L 4.622097833622441 -0.5579517473208716 L 5.14064595386158 -1.035584291225132 L 5.273434575996665 -0.8914205585061656 L 5.1567840710088575 -0.42912772956969014 L 5.450260241186753 -0.6994474246303992 L 5.583048863321839 -0.555283691911433 L 5.064500743082699 -0.07765114800717254 M 5.626374664989889 -0.21622007891381528 Q 5.718681295187308 -0.2199598678914193 5.798417024441119 -0.17399832439728766 Q 5.87815275369493 -0.128036780903156 5.930797155404145 -0.038345270888669014 Q 5.997615049881225 0.07549395336048764 5.982372210437071 0.18879843626244408 Q 5.967129370992917 0.30210291916440063 5.8759378491918275 0.3857755332720126 L 5.769130457262555 0.20380525814646677 Q 5.794009464648174 0.167171462390276 5.795162678619766 0.1276503275693257 Q 5.796315892591357 0.08812919274837544 5.774043261098997 0.05018278466532328 Q 5.739621921519896 -0.008461664190302864 5.6772936858956085 -0.01883909373539719 Q 5.614965450271322 -0.029216523280491485 5.545109562663885 0.011785366512262335 Q 5.474391256690924 0.05329345247529704 5.453064910859391 0.11277191053763974 Q 5.4317385650278585 0.17225036859998244 5.46615990460696 0.23089481745560858 Q 5.48843253609932 0.26884122553866074 5.523500893479733 0.28710212120781275 Q 5.558569250860145 0.30536301687696477 5.6026837127164395 0.30150111901068266 L 5.7094911046457115 0.4834713941362284 Q 5.591977381990015 0.522298253236597 5.4856192318952965 0.48036743034424895 Q 5.379261081800578 0.438436607451901 5.312443187323498 0.32459738320274434 Q 5.259798785614284 0.2349058731882573 5.258543127623149 0.14288047819856275 Q 5.257287469632014 0.05085508320886818 5.305555033014993 -0.027915103569316327 Q 5.353822596397973 -0.10668529034750084 5.444376524777984 -0.15983588822699651 Q 5.534068034792471 -0.2124802899362113 5.626374664989889 -0.21622007891381528 M 6.253929530320893 0.6561200734182144 L 5.598880375537074 0.9167646682537958 L 5.526417481086331 0.7346517117465212 L 6.18146663587015 0.47400711691093994 L 6.253929530320893 0.6561200734182144 M 5.870618781720003 1.4584519355146897 L 5.814348827705905 1.214866853304692 L 5.6937466568791635 1.2037260996552572 L 5.647380214771546 1.0030119919142193 L 6.392135659330233 1.094736186106341 L 6.443003697758977 1.3149371004241788 L 5.81371419883722 1.7230494949269723 L 5.767122676913547 1.5213610468570944 L 5.870618781720003 1.4584519355146897 M 6.005740920059238 1.3769472869930715 L 6.21078444901447 1.251579223940375 L 5.971753867834723 1.2298218973382329 L 6.005740920059238 1.3769472869930715 M 5.971238044644335 2.0097765472509486 L 5.982341027166468 2.2284949136016357 L 5.8325339269262715 2.2360996961510415 L 5.811494028539581 1.8216333854864983 L 6.5155873996685045 1.7858909075042892 L 6.525524315533062 1.9816388518181458 L 5.971238044644335 2.0097765472509486" fill="#202020" fill-rule="nonzero"></path></g><g><path d=" M -1.1747266853198708 4.303647823542026 Q -1.0825781611052883 4.290385113220434 -0.9977328270898876 4.327151528544953 Q -0.912887493074487 4.363917943869473 -0.8513668680725155 4.4452764879774325 Q -0.7759739452759817 4.544980586148952 -0.7749379480794119 4.655777367283643 Q -0.773901950882842 4.766574148418335 -0.8467377869440992 4.859261477569938 L -0.9601287428300859 4.709306513919973 Q -0.9376989113035288 4.666017916602779 -0.9425743774613018 4.621436756571388 Q -0.9474498436190746 4.576855596539998 -0.9770038693553158 4.537771590056763 Q -1.024652196562725 4.474758600012363 -1.0980760254944348 4.468847479559602 Q -1.1714998544261443 4.462936359106841 -1.2448820706803823 4.51842555028509 Q -1.3182642869346204 4.573914741463339 -1.3325800643938475 4.646171633977049 Q -1.3468958418530748 4.71842852649076 -1.2992475146456655 4.78144151653516 Q -1.2696934889094242 4.820525523018395 -1.2281269146245322 4.837362087460661 Q -1.1865603403396405 4.8541986519029265 -1.138798486753448 4.844410631571361 L -1.0254075308674613 4.994365595221327 Q -1.1344319698710548 5.039194957250601 -1.2403566783440627 5.007711530897863 Q -1.3462813868170707 4.976228104545124 -1.4216743096136044 4.8765240063736055 Q -1.483194934615576 4.795165462265646 -1.4954556851621108 4.70351299914525 Q -1.5077164357086454 4.611860536024853 -1.4702496323002534 4.5271124467109525 Q -1.4327828288918611 4.442364357397052 -1.3498290192131572 4.379637445630336 Q -1.2668752095344535 4.31691053386362 -1.1747266853198708 4.303647823542026 M -0.8820635618510906 5.413782555189937 Q -0.9147712339443201 5.3251684581949235 -0.8979106372652763 5.230965378204794 Q -0.8810500405862325 5.1367622982146655 -0.8140232997038976 5.058554779351756 Q -0.7469965588215628 4.980347260488847 -0.6568095936060039 4.949646099188212 Q -0.566622628390445 4.918944937887578 -0.4740464110430912 4.937703775315721 Q -0.3814701936957374 4.956462612743865 -0.30629986003138754 5.02088637339776 Q -0.23112952636703765 5.085310134051654 -0.19842185427380832 5.173924231046668 Q -0.16571418218057876 5.262538328041683 -0.18300870263070745 5.355711014824881 Q -0.20030322308083615 5.44888370160808 -0.267329963963171 5.527091220470989 Q -0.33435670484550584 5.605298739333899 -0.4244893944397998 5.636704921312909 Q -0.5146220840340938 5.668111103291918 -0.6068186532316276 5.64967763839233 Q -0.6990152224291615 5.631244173492741 -0.7741855560935114 5.566820412838846 Q -0.8493558897578612 5.502396652184951 -0.8820635618510906 5.413782555189937 M -0.5341022516846151 5.493374807496489 Q -0.45931606535463765 5.483716840100712 -0.3994475201005133 5.413861580533841 Q -0.33892822978927895 5.343247024667331 -0.34115634225148617 5.268243454653259 Q -0.3433844547136935 5.193239884639188 -0.40716534388344483 5.138577299841944 Q -0.47170552935283616 5.0832639699875894 -0.5458409706257036 5.092162641083727 Q -0.6199764118985711 5.101061312179864 -0.6811464472669154 5.172435164346014 Q -0.7416657375781498 5.243049720212524 -0.7394376251159426 5.3180532902265965 Q -0.7372095126537354 5.393056860240668 -0.672669327184344 5.448370190095022 Q -0.6088884380145926 5.503032774892266 -0.5341022516846151 5.493374807496489 M 0.28337080809460347 6.244047263525287 L 0.13290570331391977 6.162799172819486 L 0.08698408523401208 5.645908270410745 L -0.11874938421400738 6.026910553276453 L -0.2692144889946911 5.945662462570653 L 0.06433030442911875 5.327963611365742 L 0.21479540920980245 5.409211702071541 L 0.2597667572229756 5.927862430267191 L 0.46645049673772965 5.545100321614575 L 0.6169156015184133 5.626348412320374 L 0.28337080809460347 6.244047263525287 M 0.6643499329058397 6.3665820095126735 Q 0.6136593486522065 6.324433881819675 0.5935401667845343 6.266741000794582 Q 0.573420984916862 6.20904811976949 0.592212644824529 6.142626184251811 L 0.765829958995486 6.197224977462497 Q 0.7579459827398107 6.235628661119145 0.7737367682624094 6.2620843049892025 Q 0.7895275537850082 6.28853994885926 0.8248233813911916 6.2996397035229705 Q 0.8610731502840289 6.3110394515559705 0.8873097425529742 6.300945333163901 Q 0.9135463348219195 6.290851214771831 0.9228461292698934 6.261279034885569 Q 0.9306459568714199 6.236476561432576 0.9190518716329029 6.215009675596899 Q 0.9074577863943859 6.193542789761221 0.8864322106469031 6.175399604691149 Q 0.8654066348994204 6.157256419621078 0.8247713015967535 6.129801553251322 Q 0.7662031548593871 6.089369237119912 0.7314835402883608 6.056436755220738 Q 0.6967639257173347 6.0235042733215645 0.6794914739719415 5.975092886120793 Q 0.6622190222265483 5.92668149892002 0.682018584599654 5.863721374000883 Q 0.7114179347900231 5.770235127908829 0.7957973981379957 5.738590915719106 Q 0.8801768614859682 5.706946703529384 0.9889261681644798 5.741145947628385 Q 1.0995833574162985 5.775945178465965 1.1506635567731387 5.8501884490947935 Q 1.2017437561299786 5.924431719723621 1.1768141190035883 6.020371873948776 L 1.0003349809726703 5.964873100630222 Q 1.0086268729552055 5.931839110145421 0.9925360940633173 5.906337407562018 Q 0.9764453151714292 5.880835704978614 0.9421034288518992 5.870035943684193 Q 0.9125312489656372 5.860736149236219 0.8894564739259423 5.870776306449503 Q 0.8663816988862472 5.8808164636627875 0.8570819044382734 5.91038864354905 Q 0.846882129882431 5.942822647295272 0.8717083770388464 5.970547319558954 Q 0.8965346241952619 5.998271991822636 0.9548027775633388 6.0396582492407 Q 1.012770937562126 6.081998447945418 1.0470135814898254 6.114780933159947 Q 1.0812562254175249 6.147563418374475 1.0988286705322075 6.195020864288594 Q 1.11640111564689 6.242478310202713 1.097501533381653 6.302576611261889 Q 1.079501931224284 6.359813088461106 1.0357070468861644 6.397406413743804 Q 0.9919121625480447 6.434999739026502 0.9278837602127404 6.445264420920666 Q 0.8638553578774362 6.455529102814832 0.7884939962318009 6.431829626640963 Q 0.7150405171594729 6.408730137205672 0.6643499329058397 6.3665820095126735 M 1.5409093868785182 5.882729638226476 L 1.4903889200951916 6.299680093839604 Q 1.4828108500776926 6.362222662181574 1.5094960125857257 6.3997046858985485 Q 1.5361811750937586 6.437186709615523 1.5957455258956341 6.444403919155999 Q 1.6553098766975094 6.451621128696474 1.6911672825314457 6.421717174996998 Q 1.7270246883653817 6.391813221297522 1.7346027583828807 6.329270652955553 L 1.7851232251662075 5.912320197342425 L 1.9548816249515522 5.932889244532779 L 1.9044814449939 6.348846960965876 Q 1.893174483380489 6.442164443888814 1.8456462725103906 6.501881017563862 Q 1.798118061640292 6.56159759123891 1.727138701740921 6.586238623446907 Q 1.6561593418415497 6.610879655654904 1.5737619898989554 6.600895849123914 Q 1.4913646379563612 6.590912042592922 1.430249543498738 6.5507692321602216 Q 1.3691344490411148 6.51062642172752 1.3392891472816124 6.441031106059839 Q 1.3094438455221102 6.371435790392157 1.3207508071355214 6.278118307469219 L 1.3711509870931735 5.8621605910361225 L 1.5409093868785182 5.882729638226476 M 2.2981700361898767 6.490421433454016 L 2.521943718140186 6.480354692849335 L 2.5278759045679444 6.612221326855767 L 2.133274992200212 6.6299729453327725 L 2.1017265461980403 5.928682209934929 L 2.2725537766154638 5.920997332062605 L 2.2981700361898767 6.490421433454016 M 3.099337704737494 5.801159686741925 L 3.125903436271461 5.9355593218160765 L 2.9434338587255318 5.971626665358542 L 3.0529932624969995 6.525902532635154 L 2.8852389734628394 6.559061219440324 L 2.775679569691371 6.0047853521637125 L 2.593209992145442 6.040852695706178 L 2.5666442606114757 5.906453060632026 L 3.099337704737494 5.801159686741925 M 3.829284028366784 6.146568540284085 L 3.5860059428549955 6.243829905222682 L 3.593039262171373 6.374560668317655 L 3.4268301884820214 6.441010226806238 L 3.4020788737228584 5.694881972135708 L 3.5859302513233704 5.621379108556157 L 4.0823810601282915 6.178924258689256 L 3.914314901816712 6.2461162703453095 L 3.829284028366784 6.146568540284085 M 3.739426257624748 6.040334924901422 L 3.563237844537935 5.833996263730156 L 3.5787884378020784 6.104557123887595 L 3.739426257624748 6.040334924901422 M 4.824800421027606 5.711016312337352 L 4.682441982572555 5.805753184782242 L 4.204456139491959 5.603727112666458 L 4.444345412992761 5.964201988988314 L 4.301986974537709 6.058938861433203 L 3.9130671823955314 5.474520008828255 L 4.055425620850583 5.379783136383365 L 4.534519497527025 5.583474219475232 L 4.293522190430377 5.2213343321772925 L 4.435880628885429 5.1265974597324035 L 4.824800421027606 5.711016312337352 M 4.909690342820864 4.672410231189968 L 5.005491244830879 4.770344837811261 L 4.872528932191752 4.900410296014639 L 5.26762024340094 5.30430119193457 L 5.14538069791013 5.423877500282838 L 4.750289386700941 5.019986604362908 L 4.617327074061813 5.150052062566286 L 4.521526172051798 5.052117455944994 L 4.909690342820864 4.672410231189968 M 5.603478711209677 4.893378578520757 Q 5.547421625387115 4.92807156238035 5.48632613235881 4.928840153057027 Q 5.425230639330505 4.929608743733704 5.368206811123804 4.890707805227638 L 5.47508501872641 4.74339504698975 Q 5.509001009944476 4.7630598770092565 5.539100517190282 4.756481908967399 Q 5.569200024436087 4.749903940925542 5.590928011695958 4.719955742822235 Q 5.613243241854743 4.68919813395938 5.611997897338778 4.661114346518286 Q 5.610752552822813 4.633030559077191 5.585660819276799 4.614826029210813 Q 5.564616139528529 4.599557713839013 5.540579405885179 4.603739272849555 Q 5.51654267224183 4.607920831860097 5.492664459964449 4.622101134340523 Q 5.468786247687069 4.6362814368209495 5.42985408080436 4.666102341934929 Q 5.372923937727586 4.708810172707025 5.330674867123698 4.731282734490401 Q 5.28842579651981 4.753755296273777 5.23703542551193 4.754770070964259 Q 5.18564505450405 4.755784845654741 5.132223944373827 4.717026814326323 Q 5.052901689938041 4.659477010232613 5.049673638606076 4.569416865414841 Q 5.04644558727411 4.4793567205970675 5.113391277750467 4.387083894008501 Q 5.181511454024656 4.293192245900836 5.26812799700261 4.268316062862674 Q 5.354744539980565 4.243439879824512 5.437812419670476 4.2975298730193945 L 5.329172483371124 4.447270863535929 Q 5.300478031748633 4.428923426491902 5.271187935262376 4.436088637432675 Q 5.2418978387761195 4.443253848373447 5.2207570944151644 4.472392635717205 Q 5.202552564548787 4.497484369263219 5.2047502270019494 4.522552681526752 Q 5.206947889455113 4.547620993790284 5.232039623001127 4.565825523656661 Q 5.259559588825787 4.585791782219785 5.293730166022508 4.571048252993616 Q 5.327900743219229 4.556304723767446 5.385640297055552 4.514184135894265 Q 5.444189261651423 4.472650790919999 5.486144710805854 4.4505829345163965 Q 5.528100159960284 4.428515078112795 5.578681120208616 4.426913060523398 Q 5.629262080456947 4.425311042934001 5.680254958308524 4.462307345565672 Q 5.728819603881453 4.497541919500597 5.750569822682426 4.551003849713692 Q 5.772320041483399 4.6044657799267865 5.7617328653732205 4.668441648049166 Q 5.751145689263042 4.732417516171545 5.704753500248725 4.796360966175903 Q 5.6595357970322375 4.858685594661163 5.603478711209677 4.893378578520757" fill="#1192dc" fill-rule="nonzero"></path></g><g clip-path="url(#SvgjsClipPath1001)"><g clip-path="url(#SvgjsClipPath1000f192fd6c-73e6-417b-b021-e092afaf7300)"><path d=" M 3.111009285541699 0.3789975259454461 C 3.1068956429637855 0.36733609813164336 3.094590012831734 0.36071396407177614 3.0825914313819736 0.3637047828741875 C 3.0731886562187785 0.3616603545532071 3.0634816525380506 0.36549289322326756 3.0580116778890276 0.37340941046687265 C 3.0201772009014274 0.42272677120821994 3.0060374716739937 0.48622820056415567 3.0193721463058605 0.5469392882819644 C 3.0212257733695425 0.553411384571022 3.025800770611714 0.5587583398776848 3.031908282954465 0.561590698726634 C 3.0380157952972153 0.5644230575755863 3.0450527747126723 0.5644611564438967 3.0511905974294153 0.5616950949905106 C 3.015951662810078 0.8808938193556252 3.0693072280378892 1.20870341205605 3.014997109276371 1.5269475828874592 C 3.012252767866965 1.5429761276409524 3.0367728617640544 1.5498568676964213 3.039517203173461 1.5337090037512162 C 3.0951994926396833 1.207430674011109 3.0377473018297136 0.870771574591944 3.0785942384595777 0.5440955142127937 C 3.1218872185195647 0.5050582519905809 3.1300208100880234 0.4315576298951672 3.111009285541699 0.3789975259454461 Z" fill="#202020" transform="matrix(1,0,0,1,0,0)" fill-rule="nonzero"></path></g><g clip-path="url(#SvgjsClipPath1000f192fd6c-73e6-417b-b021-e092afaf7300)"><path d=" M 4.220498789688115 1.685483015610572 C 4.201169080630555 1.6249881854119117 4.121066129927005 1.621627361511989 4.068406593317521 1.6268774059473738 C 4.0608827809967565 1.6288942622015445 4.053833152855604 1.6323819018188361 4.047664940491353 1.6371388564347198 C 3.897370310428034 1.5868742855956286 3.7428689544609792 1.5501956876489398 3.586018987752472 1.5275441788460244 C 3.431679613271278 1.5085326542997017 3.2564792667722027 1.5036803405033583 3.1226627932657007 1.5956754373143398 C 3.1092194976659995 1.6048829016082187 3.1219468781154207 1.6269370655432314 3.1355094929068366 1.6175506224617833 C 3.274377145529202 1.522095269091119 3.459659963728054 1.5342459401139272 3.618493694430451 1.5575131824980248 C 3.7575805789719148 1.5802913241087664 3.894691639159138 1.6138211018473079 4.0285937563491725 1.6578009631330783 C 4.028555167731546 1.6608577501059458 4.0291440126783815 1.6638899631655177 4.0303238846290155 1.666710129447673 C 4.055679212868099 1.7293924781610797 4.142742449754926 1.7368101545792594 4.199001448647762 1.7192702333974 C 4.206399113884051 1.7177590837084304 4.212865782419106 1.713308151170098 4.216918939114089 1.7069378336633687 C 4.220972095809073 1.7005675161566365 4.222264113076265 1.6928241774849577 4.220498789688115 1.685483015610572 Z" fill="#202020" transform="matrix(1,0,0,1,0,0)" fill-rule="nonzero"></path></g><g clip-path="url(#SvgjsClipPath1000f192fd6c-73e6-417b-b021-e092afaf7300)"><path d=" M 2.7777905561502676 1.4238359147151882 C 2.776604073170871 1.4050989236480156 2.764898553395545 1.388654171047261 2.7475829141148425 1.3813980555291452 C 2.5520983050245007 1.1214413098497 2.2862153728232935 0.9259964738232634 2.0260796483562773 0.7353045189334052 C 1.8888625778859465 0.6348178729788282 1.7506312942860514 0.5359221495804293 1.618763700910867 0.42853487703842874 C 1.547470206167796 0.3709433867562074 1.4714839808020832 0.31941670360092383 1.391599846420634 0.27449380053651773 C 1.1892808884137982 0.15698916304746427 0.9695612474740628 0.07240931837434268 0.740673882560505 0.023923497938520544 C 0.538407966074457 -0.016346729264727397 0.308082153003822 -0.0191706168019451 0.14256654756547843 0.12136750450440767 C -0.06823069112807428 0.30034629207440505 0.006781307395707077 0.61149097099887 0.04377025682683986 0.8470668285048911 C 0.049000414730273244 0.8803369964609583 0.05285840192900524 0.9141043277158303 0.05598058744550259 0.948189843481941 C 0.04893231365796299 0.9675093678704092 0.0486099969130753 0.9886421353177701 0.05506580697570016 1.0081676238498405 C 0.05723343895849213 1.015446094544354 0.05959993626080786 1.0225455864512967 0.06214541235069139 1.029585418762385 C 0.07606598471724713 1.2459906594664625 0.07618530390896049 1.4690777749064898 0.19936248282102306 1.6538037702106785 C 0.38080720035309656 1.9257520946573141 0.7381284064706201 1.8699107129354733 1.0172756554839604 1.8370183890865008 C 1.3456818441429543 1.7982993113755237 1.6759175937415518 1.8097937268439062 2.005636293509392 1.801620362211546 C 1.843759923418305 1.8180665241360325 1.6810880920491293 1.8270353500464844 1.5188736509148553 1.839404772920765 C 1.1750156269289855 1.865515789374035 0.7717764185337818 1.8851437964108746 0.47711767459770754 2.085997769128317 C 0.34902990324277466 2.1701492368157833 0.25981203444407197 2.3019288392374886 0.22925194034521312 2.452108822368723 C 0.18737090405383408 2.6682356516254724 0.2565561487156137 2.8947830236251857 0.3406165192776575 3.09199776099537 C 0.44249522246889045 3.330795236677652 0.6098602753787904 3.5946099695558273 0.8807148405680529 3.6573917509289946 C 1.166802489232719 3.7237332215216052 1.4101340942001064 3.505776831325254 1.5775786932378144 3.302894432348686 C 1.6758778206776475 3.1837939924868275 1.7934072245152797 3.0796482246530408 1.9049308957033404 2.973255278708653 C 2.0492076850167105 2.8356205910673222 2.192867991839562 2.6969915768283848 2.3252128619815995 2.5476834949311025 C 2.4412905489867187 2.416690908961817 2.5536892275806773 2.274462432439524 2.6241472102873997 2.1130434525833395 C 2.654740981953692 2.045084746787131 2.6737754672041105 1.9724956081202802 2.6804658687760923 1.8982689074993442 C 2.6855568209558607 1.8360837220847483 2.678238577197443 1.7808190497895215 2.6421445217041604 1.7358158279816436 C 2.756551740025295 1.674982926739799 2.795927073290694 1.5579109131370665 2.7777905561502676 1.4238359147151882 Z" fill="#1192dc" transform="matrix(1,0,0,1,0,0)" fill-rule="nonzero"></path></g><g clip-path="url(#SvgjsClipPath1000f192fd6c-73e6-417b-b021-e092afaf7300)"><path d=" M 2.586203707322561 1.6150648059677526 C 2.3503892114331135 1.4621771483190709 2.0935148782062627 1.3004797570155548 1.8161176440047182 1.2307774625230172 C 1.3300908030924132 0.8498509429782058 0.6615055988587105 0.9123543129040389 0.083443888071524 0.9637411114685808 C 0.05912265949395592 0.9659286299833257 0.05892379417443365 1.0040908847996393 0.083443888071524 1.0019232528168456 C 0.6246558551512441 0.9537978454924704 1.2554367621437719 0.8905586738844028 1.7264492714321502 1.2117062783808354 C 1.7147361041122917 1.2097176251856128 1.7030229367924332 1.20772897199039 1.691230223344765 1.2061181629022621 C 1.166225779806105 1.0368837759888527 0.6216529888264586 1.2609254449625855 0.09617126852094462 1.3071815182834545 C 0.07185003994337805 1.3093491502662464 0.07165117462385578 1.3475114050825598 0.09617126852094462 1.345343773099768 C 0.6159654406881218 1.2996047496096583 1.1568393367246563 1.0767164994891518 1.6758380476137436 1.2413173244576945 C 1.6775014399925836 1.2420999744499988 1.6792700566768908 1.2426359188997878 1.6810880920491307 1.2429082470138726 C 1.6830166719965305 1.243521178734399 1.6850305147988636 1.2438232551547501 1.6870540516347965 1.243803140951725 C 1.7102550055790553 1.247223624447505 1.7333167537996492 1.251353394249583 1.7562392962965776 1.2561924503579571 C 1.220098394864674 1.2378570678980085 0.7571995906128017 1.5689280518385986 0.23619233999653952 1.6379144311808604 C 0.21214952286630262 1.6410962762932138 0.21185122488701996 1.6792784176414801 0.23619233999653952 1.676056799465221 C 0.7586314209133621 1.6068914413353927 1.225189347044441 1.273334640900775 1.7626029865212873 1.2944541378340337 C 1.7708863457064272 1.2943011503016255 1.7781168996374979 1.2888016722345406 1.7804762328511503 1.280859947525004 C 1.7828355660648019 1.272918222815466 1.7797803780246182 1.2643630492228646 1.7729240966044908 1.2597123665135035 C 1.7821116743664165 1.2617010197087262 1.7912197060005348 1.2642266092666568 1.8003476241666048 1.2664737873772591 C 1.8044442497487627 1.2697550651493756 1.808640307990681 1.272817591070017 1.8126971605089346 1.2761585284379913 C 1.8200231527792414 1.2822965930080588 1.830679480438928 1.282355052485815 1.8380723752799706 1.276297734161653 C 2.099997887622685 1.3494602852138795 2.3426931235676025 1.5025865812459882 2.567033090520618 1.6480366759445402 C 2.587655424155073 1.6614401984803364 2.606746494829207 1.6284086689076946 2.586203707322561 1.6150648059677526 Z" fill="#facf0e" transform="matrix(1,0,0,1,0,0)" fill-rule="nonzero"></path></g><g clip-path="url(#SvgjsClipPath1000f192fd6c-73e6-417b-b021-e092afaf7300)"><path d=" M 2.7075314387630676 1.5964708985924259 C 2.5942776392951634 1.440301963171629 2.4272705439604025 1.3272669155551975 2.2651754220178413 1.227197886771618 C 2.068754627554118 1.1089405182296812 1.8647314131343915 1.0037965823558557 1.6544401392331596 0.9124537455638022 C 1.4351549031998183 0.8105801362363492 1.201907549055282 0.7419665395588316 0.9623888272958265 0.7088753179689057 C 0.6749687809903658 0.6720255742614377 0.38512257778672904 0.6748693483306039 0.09627070118070652 0.6584629594700221 C 0.07167106115580726 0.6570709022333646 0.07181026687947209 0.695233157049681 0.09627070118070652 0.6966252142863354 C 0.3618354488706782 0.7117190920380718 0.6282155443706919 0.7104065809292248 0.8929450577186702 0.7386255697694278 C 1.1442168034611226 0.7666223438138767 1.3894972771692375 0.8340917558637776 1.6197381409765255 0.9385448754851148 C 1.8178796102121135 1.0248472443518333 2.010868621426162 1.122526974060068 2.19774019216786 1.2310956470342544 C 2.3707530201521876 1.3328749175657255 2.555021625221477 1.4507821655104487 2.6746590014460443 1.6157409480541298 C 2.6888579852599306 1.6354485012187814 2.7219889474923336 1.6164369766724556 2.7075314387630676 1.5964708985924259 Z" fill="#facf0e" transform="matrix(1,0,0,1,0,0)" fill-rule="nonzero"></path></g><g clip-path="url(#SvgjsClipPath1000f192fd6c-73e6-417b-b021-e092afaf7300)"><path d=" M 2.5646268201544005 1.2237376302119305 C 2.2517520129500928 0.8982547617499138 1.8250268103193144 0.6799404139784194 1.4034522194641603 0.5319647297219383 C 0.9774031589197585 0.38239812290927766 0.4835410244182775 0.2897268840119219 0.04021056760739351 0.41747796527299663 C 0.030323557272535474 0.4205034350976297 0.02464198058247802 0.4308500224745485 0.027394848446214735 0.4408163738403238 C 0.030147716309951444 0.4507827252061006 0.040334407608642604 0.4567462396412604 0.05037258543497764 0.4542680493846102 C 0.4889501611092817 0.32788913882823684 0.9717156107814217 0.4232251730071894 1.3933100881685285 0.5687548138335489 C 1.8082624638835916 0.7119378438895485 2.2305330833570736 0.9312067451947468 2.537640796295237 1.2507236540710969 C 2.5547233272421948 1.2684823271044288 2.581649691505503 1.2414565301813594 2.5646268201544005 1.2237376302119305 Z" fill="#facf0e" transform="matrix(1,0,0,1,0,0)" fill-rule="nonzero"></path></g><g clip-path="url(#SvgjsClipPath1000f192fd6c-73e6-417b-b021-e092afaf7300)"><path d=" M 3.6615082630431077 2.5819281029528325 C 3.6117288536335814 2.4302101059310006 3.545440928985348 2.2844166845366636 3.4638361354380214 2.1471687414133633 C 3.4021878863861326 2.043082633175428 3.3128376983248 1.9383601559150274 3.1870951567909 1.9197264754757948 C 3.18144738171647 1.8742459769010633 3.121469601348567 1.8370382756184553 3.0785345788637204 1.8791380637613095 C 3.056898032099703 1.9003172202904273 3.0363353580611054 1.9224708168852005 3.0163891665130267 1.9451215767787815 C 2.932149817163415 1.98109631308035 2.856382130425449 2.0452701516901683 2.791512263197301 2.1042138323965567 C 2.665033919981169 2.2189988948247823 2.5613853154461883 2.3581250723625278 2.459884456362048 2.494685887278434 C 2.233177992106718 2.7997452874255204 2.000187383754485 3.097844401389329 1.7487221872186376 3.383076929180046 C 1.593507805331545 3.559132396553067 1.4096369309013015 3.7099916279426215 1.2743090809664306 3.903288718518221 C 1.217393826519171 3.9846047476708573 1.1698849016853132 4.082386825279931 1.1899504124251048 4.183688819044552 C 1.2106522921873677 4.288212430985429 1.3106417748431407 4.369985850372967 1.412102860863376 4.385895075934743 C 1.6222040709386008 4.418866945911527 1.849845202195686 4.2746895892579175 2.000286816414245 4.141628803965601 C 2.116523595674983 4.038795547240659 2.213530098537921 3.9056552158205364 2.304888826326429 3.7810263200759606 C 2.326147528983355 3.75201186995767 2.3466505434260956 3.7224207104127625 2.366696167633935 3.6925511394205257 C 2.3580455262347186 3.743222022834787 2.3511647861792495 3.7941912042283303 2.347187479788806 3.845538229728969 C 2.339451618859391 3.9454879393208353 2.344840869018443 4.064986109821735 2.419654002222702 4.140535044708227 C 2.4952228236411456 4.216879440872809 2.6229540183702675 4.200393505884416 2.715744576459335 4.174342149027007 C 2.838285386348927 4.139878789153805 2.953070448777152 4.073935049200239 3.0604577213191506 4.007175961436629 C 3.290226711495123 3.864350888955771 3.504702958599837 3.694619338743557 3.6279795701716613 3.4475888388330547 C 3.7633074201065315 3.1764160891325566 3.7526681255120926 2.864774246909285 3.6615082630431077 2.5819281029528325 Z" fill="#1192dc" transform="matrix(1,0,0,1,0,0)" fill-rule="nonzero"></path></g><g clip-path="url(#SvgjsClipPath1000f192fd6c-73e6-417b-b021-e092afaf7300)"><path d=" M 2.5969424345767615 1.7276424633492837 C 1.8243705547648907 2.0391450998488887 0.9447097003903037 2.0705459338014465 0.2264678258719044 2.5181917680459645 C 0.20566651344987968 2.5311776734107645 0.22477747065596587 2.564189316451452 0.24573787533360686 2.5511437514907973 C 0.9261356795469283 2.127083344141616 1.752779039736891 2.0784607735184313 2.4941091778518216 1.8075863217972172 C 2.105387137781739 2.0936341973979777 1.653883316338492 2.2841670600322166 1.2743289674983835 2.5836383447007285 C 1.1026478764800487 2.7175524238274713 0.9432008744348929 2.8664512603297583 0.7978675484551092 3.0285796105997314 C 0.697897952331278 3.1414555659605554 0.5778628454676658 3.2817749354154317 0.5604621300094726 3.437784778580614 C 0.5577575616639698 3.4622253263498934 0.5959397030122362 3.4619668014345155 0.5986243848257861 3.437784778580614 C 0.6169398807537817 3.2734822515913566 0.7627280464955208 3.122125856902994 0.8688226944606259 3.006863517707915 C 1.0095113899152315 2.8563610378306814 1.1621917198318272 2.7175341350699065 1.3253578084877786 2.5917520497372397 C 1.4443113331985094 2.5003000787516734 1.5686177284160192 2.4160301842428744 1.697613800101423 2.339391959263538 C 1.6213489500646565 2.578030342690199 1.5524421168502065 2.8193136348665084 1.4510208038938757 3.0490229654466203 C 1.3485256182121237 3.281337431712478 1.2015641470852039 3.533896387505698 0.955985364007214 3.635675658037169 C 0.9335931290290127 3.6449626684588567 0.9433773027495053 3.6819118448260864 0.9661274953028467 3.6724856286807324 C 1.2075102201389165 3.5723967133651997 1.3553665852036867 3.3414544178040453 1.4630123826610646 3.114191130654055 C 1.58298782992882 2.860876486646649 1.6569259557271805 2.58950487162663 1.74265679497321 2.3235622798295683 C 1.7439383006830853 2.3198922859879296 1.7439802177083956 2.3159031824125083 1.7427761141649225 2.312207070084846 C 2.033616643966169 2.1389158306531857 2.3364089794707 1.9834429238507143 2.602709528842905 1.7723076141139744 C 2.6055942185919516 1.7701233535467902 2.6076885931583798 1.7670585854312526 2.6086754884285717 1.763577426586949 C 2.6288802048920297 1.7532364299717913 2.619135804235441 1.718733297034686 2.5969424345767615 1.7276424633492837 Z" fill="#facf0e" transform="matrix(1,0,0,1,0,0)" fill-rule="nonzero"></path></g><g clip-path="url(#SvgjsClipPath1000f192fd6c-73e6-417b-b021-e092afaf7300)"><path d=" M 0.7538387667128776 3.3136331596028885 C 0.7301936802216853 3.3484743635831804 0.7027701526595713 3.3797956514079295 0.6883325304622577 3.4199664459514185 C 0.679980187042324 3.4431740287396617 0.7168895903456478 3.4530775216518665 0.7251425011058212 3.4301085772470525 C 0.7382079525984304 3.3936764507105823 0.7653530687132132 3.3644830218047193 0.7867907501577092 3.332903209064589 C 0.8006715494603605 3.3125195138135637 0.7675008141640537 3.2934483296713832 0.7538387667128776 3.3136331596028885 Z" fill="#facf0e" transform="matrix(1,0,0,1,0,0)" fill-rule="nonzero"></path></g><g clip-path="url(#SvgjsClipPath1000f192fd6c-73e6-417b-b021-e092afaf7300)"><path d=" M 0.871328397486605 3.41157432946758 L 0.7949840013220251 3.487898839100207 C 0.7879241669628875 3.495418890320141 0.7881141862684946 3.5071868177126406 0.795413132658076 3.5144750145493657 C 0.8027120790476604 3.5217632113860935 0.8144802737167827 3.521935886460259 0.8219899117131415 3.5148649764274205 L 0.8982945348138169 3.4385603533267455 C 0.9052338465462978 3.4310318321466418 0.9049986192507586 3.4193695562167323 0.8977613754124028 3.4121269751779066 C 0.8905241315740453 3.4048843941390783 0.8788620322205667 3.4046405695802577 0.871328397486605 3.41157432946758 Z" fill="#facf0e" transform="matrix(1,0,0,1,0,0)" fill-rule="nonzero"></path></g><g clip-path="url(#SvgjsClipPath1000f192fd6c-73e6-417b-b021-e092afaf7300)"><path d=" M 0.919215166427555 3.237368309566116 C 0.9104021855462341 3.258834887595539 0.8985550758801686 3.2789260854464124 0.884035891404074 3.297027905422781 C 0.8671323392446858 3.314925784179782 0.8940984765718978 3.341931694570899 0.9110219152632405 3.3240139292819464 C 0.9279361898611272 3.3036435886958904 0.9417964634925717 3.280920510804223 0.9521671498723879 3.256558812900008 C 0.9631246289780612 3.2346637412206163 0.9302124185971341 3.215353918695006 0.919215166427555 3.237368309566116 Z" fill="#facf0e" transform="matrix(1,0,0,1,0,0)" fill-rule="nonzero"></path></g><g clip-path="url(#SvgjsClipPath1000f192fd6c-73e6-417b-b021-e092afaf7300)"><path d=" M 1.0972791735277514 3.300945552217369 C 1.0729181718862788 3.338073707372168 1.0522560651879205 3.382281467901957 1.01510802350117 3.4085714631427964 C 0.9952214915489477 3.422690900828873 1.014233016095272 3.4558019765293237 1.0343382998989679 3.441543333119581 C 1.0776710530228595 3.410838527785349 1.101753643217 3.3635682413349155 1.1302510435045343 3.3202354882110248 C 1.1437937717639985 3.2995733815126664 1.1107423556594045 3.2804823108385346 1.0972791735277514 3.300945552217369 Z" fill="#facf0e" transform="matrix(1,0,0,1,0,0)" fill-rule="nonzero"></path></g><g clip-path="url(#SvgjsClipPath1000f192fd6c-73e6-417b-b021-e092afaf7300)"><path d=" M 1.0845716796102807 3.0974466707502843 C 1.0716056607774327 3.1216883532000437 1.0467872689010604 3.136543592568352 1.0336820443445451 3.161083572997395 C 1.0221080827483522 3.1827797793572694 1.0550401796612308 3.2020697153509246 1.066634027789376 3.180353622459099 C 1.0796000466222249 3.1560920534773884 1.104418438498597 3.1412567006410317 1.1175435495870645 3.1167167202119885 C 1.129117511183258 3.094980740788208 1.096165527738426 3.075730577858459 1.0845716796102807 3.0974466707502843 Z" fill="#facf0e" transform="matrix(1,0,0,1,0,0)" fill-rule="nonzero"></path></g><g clip-path="url(#SvgjsClipPath1000f192fd6c-73e6-417b-b021-e092afaf7300)"><path d=" M 1.0366849106693308 3.0173238335147814 C 1.0018834797529415 3.0521053778992195 0.9666047720697001 3.0878613623493125 0.9178827687867566 3.1014836367365843 C 0.9079957584519 3.1045091065612156 0.9023141817618425 3.1148556939381344 0.9050670496255793 3.1248220453039113 C 0.9078199174893159 3.134788396669688 0.9180066087880056 3.1407519111048465 0.9280447866143421 3.138273720848196 C 0.9833094589095676 3.122821885521317 1.024056962879669 3.083884055958867 1.0636510479965442 3.0443098573739467 C 1.0705903597290303 3.036781336193843 1.0703551324334935 3.025119060263931 1.0631178885951338 3.017876479225099 C 1.0558806447567757 3.01063389818627 1.044218545403291 3.010390073627453 1.0366849106693308 3.0173238335147814 Z" fill="#facf0e" transform="matrix(1,0,0,1,0,0)" fill-rule="nonzero"></path></g><g clip-path="url(#SvgjsClipPath1000f192fd6c-73e6-417b-b021-e092afaf7300)"><path d=" M 1.2313541719496306 2.8489047944114128 C 1.209280121482664 2.860260004156132 1.189791320169487 2.87573172601496 1.1677172697025207 2.8870670492277246 C 1.1456432192355541 2.8984023724404926 1.1651320205487319 2.9312549232255622 1.1869674326322717 2.9200389192045093 C 1.2088028447158121 2.9088229151834595 1.228530284412415 2.893211987600962 1.2506043348793823 2.881856777856246 C 1.2726783853463488 2.87050156811153 1.2531696975012188 2.8376689038584084 1.2313541719496306 2.8489047944114128 Z" fill="#facf0e" transform="matrix(1,0,0,1,0,0)" fill-rule="nonzero"></path></g><g clip-path="url(#SvgjsClipPath1000f192fd6c-73e6-417b-b021-e092afaf7300)"><path d=" M 1.2656385530352627 2.966374538653187 L 1.1893140434026344 3.042699048285817 C 1.1823747316701536 3.05022756946592 1.1826099589656927 3.0618898453958265 1.1898472028040485 3.0691324264346553 C 1.197084446642406 3.076375007473481 1.2087465459958846 3.0766188320323016 1.2162801807298471 3.0696850721449787 L 1.292624576894427 2.9933605625123523 C 1.2996898401371029 2.9858457011770003 1.299508442470642 2.9740777279941186 1.2922149150120694 2.966784200535548 C 1.2849213875534966 2.9594906730769734 1.2731534143706142 2.959309275410512 1.2656385530352627 2.966374538653187 Z" fill="#facf0e" transform="matrix(1,0,0,1,0,0)" fill-rule="nonzero"></path></g><g clip-path="url(#SvgjsClipPath1000f192fd6c-73e6-417b-b021-e092afaf7300)"><path d=" M 1.291093313934106 3.1571659262028042 C 1.2627351193702376 3.1860809436613344 1.2395871961778515 3.219967594107923 1.205899411050787 3.2432348364920207 C 1.1857941272470902 3.2571554088585764 1.204865311389271 3.2901869384312183 1.2251694605124903 3.2761868199368536 C 1.2618799984962918 3.250811605165818 1.2871955536714712 3.2156522166742905 1.3180594512613188 3.184151950061969 C 1.3352811879319428 3.166572255816207 1.3084144832644913 3.1395862319570416 1.291093313934106 3.1571659262028042 Z" fill="#facf0e" transform="matrix(1,0,0,1,0,0)" fill-rule="nonzero"></path></g><g clip-path="url(#SvgjsClipPath1000f192fd6c-73e6-417b-b021-e092afaf7300)"><path d=" M 1.4818648149517717 2.724693515837836 C 1.4608810791146394 2.7484132427377768 1.4364529675140516 2.768845977139145 1.4093982925178732 2.785307665228208 C 1.3876424265621439 2.7968020806965908 1.4069124760238472 2.829734177609472 1.42868822851153 2.8182795352049927 C 1.458569064397959 2.800176558038698 1.4855920475555435 2.7777311288237283 1.5088707253428906 2.751679539697001 C 1.516137981607544 2.7441912277095746 1.516046381561786 2.7322553403192873 1.508665052343556 2.7248794465423067 C 1.501283723125325 2.717503552765329 1.4893477714965435 2.717420745293794 1.4818648149517726 2.724693515837836 Z" fill="#facf0e" transform="matrix(1,0,0,1,0,0)" fill-rule="nonzero"></path></g><g clip-path="url(#SvgjsClipPath1000f192fd6c-73e6-417b-b021-e092afaf7300)"><path d=" M 1.4444781348815945 2.6427808907266312 C 1.4340036022745817 2.6429200699547644 1.4255461299675452 2.6513775422617973 1.4254069507394136 2.6618520748688144 L 1.4254069507394136 2.662011167124429 C 1.4253279775832712 2.662328886148472 1.4252283327445632 2.6626411066430875 1.4251086527601302 2.6629458341261847 C 1.4247521346332843 2.663628523983417 1.4243605086127236 2.66429229689962 1.4239353473749503 2.6649344873214043 L 1.4230603399690516 2.6658890408551144 L 1.4220858999033932 2.666764048261012 C 1.4214516980707694 2.6671959753453063 1.4207870789095418 2.66758145445882 1.4200972467081705 2.66791746711424 C 1.4197856338196886 2.6680368226905933 1.4194668194002844 2.6681364521966557 1.4191426931744635 2.668215765093524 L 1.419003487450798 2.668215765093524 C 1.408530138754264 2.6683760132949903 1.4000816360026755 2.6768333257470536 1.3999323033086155 2.6873068357676586 C 1.3999973028984183 2.697815757700391 1.4084946389686352 2.7063219543921613 1.419003487450798 2.7063979064417905 C 1.4431088286761458 2.70524594169468 1.462388231574682 2.685957928075776 1.4635294324918224 2.6618520748688144 C 1.4634644338259462 2.6513541356784547 1.4549760005457364 2.6428568418207083 1.444478134881593 2.6427808907266312 Z" fill="#facf0e" transform="matrix(1,0,0,1,0,0)" fill-rule="nonzero"></path></g><g clip-path="url(#SvgjsClipPath1000f192fd6c-73e6-417b-b021-e092afaf7300)"><path d=" M 0.2564169429919489 0.48107509445619984 C 0.20604435755697126 0.4927484887121547 0.15418028222557584 0.4948564610990892 0.10376792372669376 0.5065099688230926 C 0.07980465272426725 0.5120781977697131 0.08996667055185138 0.5488682818813251 0.11392994155427938 0.5433000529347031 C 0.16428264045730553 0.5316266586787498 0.21616660232065393 0.5295385728237652 0.266559074287583 0.5178850650997633 C 0.290562118353914 0.5123168361531413 0.28040010052632985 0.47552675204153083 0.2564169429919489 0.48107509445619984 Z" fill="#facf0e" transform="matrix(1,0,0,1,0,0)" fill-rule="nonzero"></path></g><g clip-path="url(#SvgjsClipPath1000f192fd6c-73e6-417b-b021-e092afaf7300)"><path d=" M 0.4090858487891585 0.544672223639406 C 0.3751741095485286 0.5556297567418608 0.33867284140843085 0.5556297567418608 0.3047611021678024 0.544672223639406 C 0.28117567527246745 0.537373866412941 0.27117274970049815 0.5742236101204075 0.29459908434021675 0.5814623077510165 C 0.33514883600598555 0.5943092587260274 0.3786782284190209 0.5943092587260274 0.4192279800847897 0.5814623077510165 C 0.4426742012564598 0.574223610120409 0.43269116221644494 0.5374732990727015 0.4090858487891585 0.544672223639406 Z" fill="#facf0e" transform="matrix(1,0,0,1,0,0)" fill-rule="nonzero"></path></g><g clip-path="url(#SvgjsClipPath1000f192fd6c-73e6-417b-b021-e092afaf7300)"><path d=" M 0.5159361849684466 0.4422366975535107 C 0.4781475026778515 0.4393431348213527 0.44017695271504953 0.4445640854412398 0.4045716060360023 0.4575493271567223 C 0.3821992575897539 0.467691458452355 0.40158862624316977 0.5005638957693775 0.4238018824338018 0.49050131060155383 C 0.45349674509576915 0.48082485348325366 0.4848700908730148 0.4773855656854899 0.5159560715003981 0.4803989523698256 C 0.5262544298503165 0.4800611155310359 0.5344265646327332 0.4716120943330228 0.534421195223241 0.46130819751665236 C 0.5344158258137489 0.45100430070028036 0.5262348898219875 0.44256380116499594 0.5159361849684466 0.4422366975535107 Z" fill="#facf0e" transform="matrix(1,0,0,1,0,0)" fill-rule="nonzero"></path></g><g clip-path="url(#SvgjsClipPath1000f192fd6c-73e6-417b-b021-e092afaf7300)"><path d=" M 0.6558379372523266 0.5185413206541876 L 0.5668258202341822 0.5185413206541876 C 0.5566206772675796 0.5190072408573161 0.5485864740927885 0.5274166180044599 0.5485864740927885 0.5376323913283177 C 0.5485864740927885 0.5478481646521771 0.5566206772675796 0.5562575417993209 0.5668258202341822 0.5567234620024525 L 0.6558379372523266 0.5567234620024525 C 0.6660430802189293 0.5562575417993209 0.6740772833937204 0.5478481646521771 0.6740772833937204 0.5376323913283177 C 0.6740772833937204 0.5274166180044599 0.6660430802189293 0.5190072408573161 0.6558379372523266 0.5185413206541846 Z" fill="#facf0e" transform="matrix(1,0,0,1,0,0)" fill-rule="nonzero"></path></g><g clip-path="url(#SvgjsClipPath1000f192fd6c-73e6-417b-b021-e092afaf7300)"><path d=" M 0.9484682549292738 0.4676715719204035 C 0.9116099189498106 0.4692465684150866 0.8747270005538583 0.4651894473915328 0.8390923291920551 0.45564022008930855 C 0.8155466753606216 0.4483219763308906 0.8055238632567023 0.48517172003835857 0.8289303113644679 0.4924104176689676 C 0.8678735048498462 0.5029119439970757 0.9081857726509802 0.5074380219687595 0.9484881414612253 0.505833826736717 C 0.958786499811145 0.5054959898979288 0.9669586345935604 0.4970469686999141 0.9669532651840697 0.4867430718835451 C 0.966947895774576 0.47643917506717165 0.9587669597828146 0.4679986755318872 0.9484682549292738 0.4676715719204035 Z" fill="#facf0e" transform="matrix(1,0,0,1,0,0)" fill-rule="nonzero"></path></g><g clip-path="url(#SvgjsClipPath1000f192fd6c-73e6-417b-b021-e092afaf7300)"><path d=" M 0.8848313526821646 0.5694309559199215 L 0.8085068430495364 0.5694309559199215 C 0.7983125057632756 0.5698966255108096 0.7902869295941477 0.5782971726014027 0.7902869295941477 0.5885021400621018 C 0.7902869295941477 0.5987071075228009 0.7983125057632756 0.6071076546133941 0.8085068430495364 0.6075733242042836 L 0.8848313526821646 0.6075733242042836 C 0.8950256899684254 0.6071076546133941 0.9030512661375517 0.5987071075228009 0.9030512661375517 0.5885021400621018 C 0.9030512661375517 0.5782971726014027 0.8950256899684254 0.5698966255108096 0.8848313526821646 0.5694309559199201 Z" fill="#facf0e" transform="matrix(1,0,0,1,0,0)" fill-rule="nonzero"></path></g><g clip-path="url(#SvgjsClipPath1000f192fd6c-73e6-417b-b021-e092afaf7300)"><path d=" M 1.1569984289802733 0.6082693528226137 C 1.1265293110471681 0.5988872073357221 1.0947723088611785 0.5943639149702622 1.0628953597823587 0.5948658302868158 C 1.052690216815757 0.5953317504899474 1.044656013640966 0.6037411276370912 1.044656013640966 0.6139569009609506 C 1.044656013640966 0.6241726742848084 1.052690216815757 0.6325820514319522 1.0628953597823587 0.6330479716350838 C 1.09134446295607 0.6325617281214991 1.1196885865930857 0.6366233564493972 1.1468562976846393 0.6450793234661757 C 1.1703422919202138 0.6525964325441144 1.1803452174921816 0.615746688836648 1.1569984289802733 0.6082693528226137 Z" fill="#facf0e" transform="matrix(1,0,0,1,0,0)" fill-rule="nonzero"></path></g><g clip-path="url(#SvgjsClipPath1000f192fd6c-73e6-417b-b021-e092afaf7300)"><path d=" M 1.4241143261625189 0.6718863685377714 C 1.3954788616119338 0.6658673168825798 1.3672610572559336 0.6580091100668677 1.3396363384294812 0.6483606012382923 C 1.3175225148986087 0.6379400584953285 1.2981331462451937 0.6708323823443025 1.3203662889677772 0.6813125846831254 C 1.3509384175474182 0.6924592581513885 1.3822071900738842 0.7015934332573773 1.4139721948668862 0.7086565661174304 C 1.4374780756344114 0.7162134482592736 1.447461114674427 0.6793438180198541 1.4241143261625189 0.6718863685377714 Z" fill="#facf0e" transform="matrix(1,0,0,1,0,0)" fill-rule="nonzero"></path></g><g clip-path="url(#SvgjsClipPath1000f192fd6c-73e6-417b-b021-e092afaf7300)"><path d=" M 1.6703493647949312 0.7628473656872325 C 1.6440871563941526 0.7473572108544051 1.6147624513922016 0.7377813814728367 1.5844196602293796 0.7347874691026488 C 1.5597802471405775 0.7339323482287039 1.5598597932683858 0.7720946030450172 1.5844196602293796 0.7729696104509137 C 1.6080318572617125 0.7756845590024436 1.6307779706549326 0.78347237235628 1.6510992018651802 0.7957993491320655 C 1.6730539331404335 0.8067369417057888 1.6923637556660402 0.7738247313248602 1.6703493647949312 0.7628473656872325 Z" fill="#facf0e" transform="matrix(1,0,0,1,0,0)" fill-rule="nonzero"></path></g><g clip-path="url(#SvgjsClipPath1000f192fd6c-73e6-417b-b021-e092afaf7300)"><path d=" M 1.903180880891546 0.9057320977639496 C 1.8969580432576578 0.8999048817912968 1.8899495338437993 0.8949781741231034 1.8823596819375692 0.8910956102471121 C 1.8760920922169104 0.8883450548022286 1.8702521018881253 0.8847084553199676 1.865018626075231 0.8802972233970553 C 1.8471207473182316 0.8633936712376685 1.8201347234590657 0.8902404893731687 1.8380326022160653 0.9073031337881733 C 1.8442488651429432 0.9131329876896513 1.8512587422991287 0.9180539616245096 1.8588538011700424 0.9219197347730547 C 1.8651176485997194 0.9246658368924663 1.8709516871294731 0.9283029010964348 1.8761749705004274 0.9327181216231131 C 1.8940529627254754 0.9496216737825028 1.9210787596485464 0.9226953095191938 1.903180880891546 0.9057320977639496 Z" fill="#facf0e" transform="matrix(1,0,0,1,0,0)" fill-rule="nonzero"></path></g><g clip-path="url(#SvgjsClipPath1000f192fd6c-73e6-417b-b021-e092afaf7300)"><path d=" M 1.9914373096955067 0.9383062371016895 L 1.991317990503794 0.9383062371016895 L 1.9903833235020387 0.9380079391224069 C 1.9896872948837108 0.9376300950153138 1.9890509258612394 0.9372323643762693 1.988394670306816 0.9368545202691777 L 1.9874003437092047 0.9359596263313282 C 1.9868832938784466 0.9353630303727615 1.9867242016228297 0.9352039381171436 1.9865253363033073 0.9350050727976214 C 1.986102837328424 0.9343649846618561 1.9857177210401384 0.9337009910613648 1.985371917450079 0.9330164196024017 C 1.985371917450079 0.9327777812189735 1.9851730521305566 0.9324993697716423 1.9850537329388427 0.9320817526006433 L 1.9850537329388427 0.9319624334089315 C 1.984935719173702 0.9214757256500161 1.9764691278652138 0.9130003057791605 1.9659825487966616 0.9128713627347967 C 1.9554647148586481 0.9129258265848184 1.9469548666916172 0.9214445484204306 1.9469113646544807 0.9319624334089315 C 1.948062448206965 0.9560495539880116 1.9673303025844735 0.9753174083655215 1.9914174231635537 0.9764684919180044 C 2.001935257101567 0.9764140280679828 2.010445105268598 0.9678953062323721 2.0104886073057346 0.9573774212438713 C 2.0103496779676777 0.9469105046702823 2.0019040756281474 0.9384560864619191 1.9914373096955067 0.9383062371016895 Z" fill="#facf0e" transform="matrix(1,0,0,1,0,0)" fill-rule="nonzero"></path></g><g clip-path="url(#SvgjsClipPath1000f192fd6c-73e6-417b-b021-e092afaf7300)"><path d=" M 3.4007958291494775 2.5647859124100205 C 3.390355399874561 2.4426627196914237 3.3656961002538064 2.3122269566168003 3.3029342054125936 2.2053965069694623 C 3.2494792075250207 2.114415623288048 3.1406799912144145 2.036659283354861 3.1164780818285607 1.9317578273068912 C 3.11092973941389 1.907893988964222 3.0741595418342325 1.9179565741320472 3.0796879977169502 1.9418999586025223 C 3.09740689768638 2.0186221988741937 3.164424510365367 2.0834920661023437 3.2118141160075124 2.143390300342436 C 3.2998120198960947 2.254754879274879 3.3393663319490643 2.380855378383918 3.3578608066646307 2.5204986057524197 C 3.363826766250297 2.5658995581993422 3.367804072640742 2.611638581689452 3.370270002602817 2.6575168109032274 C 3.3649963613513667 2.659559689851313 3.361009281021973 2.6639897791061955 3.3595312753486177 2.6694487300745635 C 3.209666370556673 3.1666120288801096 3.014042555742665 3.648263832762928 2.7381566979694894 4.089526090250779 C 2.7250912464768793 4.11046660839647 2.7580432299217117 4.129597452134507 2.7711086814143218 4.108796139712482 C 3.0346052297812625 3.687201662325377 3.225356844266976 3.2287176681668996 3.3729944574802713 2.755398321172065 C 3.3730785912138255 2.843180281431627 3.368165297699505 2.930895849833636 3.3582784238355825 3.0181192947932636 C 3.3409771410371936 3.1735325419994846 3.3171729622903845 3.3285281720351025 3.2871641855744818 3.4820124256423512 C 3.274735103104343 3.545450462569941 3.2608145307377874 3.60872940724191 3.242777446257122 3.6709344791884604 C 3.236354330767441 3.694349604902231 3.228184580385322 3.71725016638832 3.2183368984878404 3.739443581763863 C 3.212211846646557 3.7527078985759985 3.2032629072680563 3.76223354738111 3.2049333759520433 3.76285002987163 C 3.1819047719513702 3.754040296216796 3.1720410521030677 3.7909496995201195 3.194771358124458 3.7996600005151935 C 3.3004682754505175 3.8402086391657755 3.3792786015771727 3.15720569926671 3.3879889025722467 3.0888556889469223 C 3.4109884115730322 2.9151265283596017 3.415281958378598 2.7394311262368265 3.4007958291494784 2.5647859124100205 Z" fill="#facf0e" transform="matrix(1,0,0,1,0,0)" fill-rule="nonzero"></path></g><g clip-path="url(#SvgjsClipPath1000f192fd6c-73e6-417b-b021-e092afaf7300)"><path d=" M 3.1295833063850744 1.533649344155359 C 3.0299120082405375 1.4490520372306057 2.9030955939812184 1.5074388950423314 2.829038148991144 1.5933089400120242 C 2.8160212487392977 1.60851674526636 2.80378201925087 1.6243733175265838 2.7923673840712477 1.640817864845881 C 2.764046979301187 1.6756311825035501 2.7387647165491096 1.7128094152031832 2.7167985626528033 1.7519438053948972 C 2.672690234782775 1.828268315027524 2.6124340429675423 1.9473289818254793 2.6279654244222277 2.0449718537108903 C 2.626666152516135 2.046731377714106 2.6254900447011797 2.048578597898044 2.6244455082666835 2.050500309593608 C 2.611479489433836 2.07577609170488 2.597757782386802 2.100594483581256 2.5840360753397693 2.1254327619895803 C 2.463623124369066 2.2777635967435983 2.341818116161706 2.4294381759431967 2.24994233854244 2.6012578120103966 C 2.2320444597854414 2.6346274126262226 2.2535219142938403 2.6887585526001705 2.297471149908251 2.6841249906553055 C 2.4238699469965734 2.6709402199709813 2.510396247520691 2.5551608309451455 2.5795814921824705 2.45978502370229 C 2.6234511816690724 2.3992901935036297 2.6623890112315225 2.3352754471494293 2.700412060324172 2.2710220624117987 C 2.7174548182072265 2.242166704549126 2.7342191646429495 2.213052821771075 2.750903964950863 2.183978712056924 C 2.7586000528163734 2.170595076053079 2.7660177292345516 2.1541489141285926 2.7745490514420545 2.139055036376855 C 2.857933279917722 2.1138786869253434 2.9508630437304553 2.0339149419454583 2.986479822456884 1.9966475810669957 C 3.076446493008737 1.9024053061454074 3.27507317414753 1.657085047982801 3.1295833063850744 1.533649344155359 Z" fill="#202020" transform="matrix(1,0,0,1,0,0)" fill-rule="nonzero"></path></g><g clip-path="url(#SvgjsClipPath1000f192fd6c-73e6-417b-b021-e092afaf7300)"><path d=" M 2.8653907293998055 2.092600097736459 C 2.5475244026754895 2.5695984531424547 2.517794037406918 3.1714046830805986 2.3292100549039967 3.699869383178945 C 2.3209173710799207 3.7230968524991397 2.3578068878512917 3.7330202319432986 2.3660001390156076 3.7100314010065274 C 2.5534307026653 3.184768432552489 2.5824650393155437 2.5858855228113264 2.8983228263126857 2.1118502606662117 C 2.912004760295814 2.091267700095662 2.8789334576592682 2.072196515953479 2.8653907293998055 2.092600097736459 Z" fill="#facf0e" transform="matrix(1,0,0,1,0,0)" fill-rule="nonzero"></path></g><g clip-path="url(#SvgjsClipPath1000f192fd6c-73e6-417b-b021-e092afaf7300)"><path d=" M 3.4579894950440675 2.3215139670384852 L 3.4198471267597057 2.2451894574058584 C 3.4088498745901274 2.2231750665347514 3.3759177776772473 2.2425246621242616 3.386875256782922 2.264459506867562 L 3.425037511599236 2.3407641299682376 C 3.4360546503007665 2.362798407371299 3.4689668606816944 2.3434686983137407 3.4579894950440675 2.3215139670384852 Z" fill="#facf0e" transform="matrix(1,0,0,1,0,0)" fill-rule="nonzero"></path></g><g clip-path="url(#SvgjsClipPath1000f192fd6c-73e6-417b-b021-e092afaf7300)"><path d=" M 3.4605946307298083 2.5982549456856097 L 3.4605946307298083 2.6237097065844512 C 3.46092714330507 2.634008207054944 3.4693718910700437 2.6421846958366775 3.479675758137965 2.6421846958366775 C 3.4899796252058874 2.6421846958366775 3.4984243729708604 2.634008207054944 3.498756885546122 2.6237097065844512 L 3.498756885546122 2.5982549456856097 C 3.4984243729708604 2.587956445215117 3.4899796252058874 2.5797799564333834 3.479675758137965 2.5797799564333834 C 3.4693718910700437 2.5797799564333834 3.46092714330507 2.587956445215117 3.4605946307298083 2.5982549456856097 Z" fill="#facf0e" transform="matrix(1,0,0,1,0,0)" fill-rule="nonzero"></path></g><g clip-path="url(#SvgjsClipPath1000f192fd6c-73e6-417b-b021-e092afaf7300)"><path d=" M 3.587132633541797 2.6822556566517917 C 3.5798541628472833 2.658829322012076 3.543004419139817 2.6688123610520895 3.550322662898234 2.6923977879474257 C 3.5598770957761467 2.72803148121771 3.5639343049384253 2.7649152008747913 3.562354014729328 2.801773713684646 C 3.5628196843202167 2.8119680509709095 3.5712202314108095 2.819993627140036 3.581425198871509 2.819993627140036 C 3.5916301663322088 2.819993627140036 3.6000307134228016 2.8119680509709095 3.6004963830136902 2.801773713684646 C 3.602114119885072 2.7614876965946893 3.5976082287964153 2.721189474209527 3.5871326335417972 2.6822556566517917 Z" fill="#facf0e" transform="matrix(1,0,0,1,0,0)" fill-rule="nonzero"></path></g><g clip-path="url(#SvgjsClipPath1000f192fd6c-73e6-417b-b021-e092afaf7300)"><path d=" M 3.4733220111792305 2.9035330976841687 L 3.4733220111792305 2.9925849877662176 C 3.473654523754493 3.0028834882367073 3.4820992715194667 3.011059977018444 3.492403138587388 3.011059977018444 C 3.5027070056553105 3.011059977018444 3.5111517534202834 3.0028834882367073 3.511484265995545 2.9925849877662176 L 3.511484265995545 2.9035330976841687 C 3.5111517534202834 2.8932345972136786 3.5027070056553105 2.8850581084319424 3.492403138587388 2.8850581084319424 C 3.4820992715194667 2.8850581084319424 3.473654523754493 2.8932345972136786 3.4733220111792313 2.9035330976841687 Z" fill="#facf0e" transform="matrix(1,0,0,1,0,0)" fill-rule="nonzero"></path></g><g clip-path="url(#SvgjsClipPath1000f192fd6c-73e6-417b-b021-e092afaf7300)"><path d=" M 3.587788889096221 2.9798576073167955 L 3.587788889096221 3.0816169913163147 C 3.588254809299347 3.091822134282919 3.596664186446491 3.0998563374577115 3.606879959770353 3.0998563374577115 C 3.617095733094215 3.0998563374577115 3.6255051102413596 3.091822134282919 3.625971030444486 3.0816169913163147 L 3.625971030444486 2.9798576073167955 C 3.6255051102413596 2.969652464350188 3.617095733094215 2.9616182611753956 3.606879959770353 2.9616182611753956 C 3.596664186446491 2.9616182611753956 3.588254809299347 2.969652464350188 3.587788889096221 2.9798576073167955 Z" fill="#facf0e" transform="matrix(1,0,0,1,0,0)" fill-rule="nonzero"></path></g><g clip-path="url(#SvgjsClipPath1000f192fd6c-73e6-417b-b021-e092afaf7300)"><path d=" M 3.498756885546123 2.750844305355009 C 3.4987241959396376 2.740321922062716 3.490208044912117 2.7317968907942904 3.4796857014039424 2.731753234680874 C 3.4692089746580397 2.731913212536013 3.460754608584948 2.740367578609105 3.4605946307298083 2.750844305355009 C 3.4607736095173784 2.7476226871787466 3.4592821196209615 2.7554182077040195 3.4599184886434338 2.7539267178076017 C 3.4583872256831123 2.7575460666229055 3.456458232083746 2.7610063231825914 3.4547479903358553 2.7645461258700865 C 3.4507876526339163 2.772134859139452 3.448451097908235 2.780465184683188 3.4478871368123394 2.789006560171321 C 3.447930638849475 2.799524445159822 3.4564404870165055 2.808043166995431 3.4669583209545194 2.8080976308454555 C 3.477439436277129 2.8079480305110485 3.4858997912942464 2.799487675493931 3.4860493916286535 2.789006560171321 C 3.4858704128410833 2.7922480648795345 3.487381789269452 2.784412771290359 3.4867454202469808 2.785924147718728 C 3.488276683207302 2.782304798903421 3.4901857902747153 2.778844542343735 3.491896032022606 2.775324626188192 C 3.4958535956758343 2.76772769151654 3.498189900917363 2.759391483538797 3.4987568855461233 2.750844305355009 Z" fill="#facf0e" transform="matrix(1,0,0,1,0,0)" fill-rule="nonzero"></path></g><g clip-path="url(#SvgjsClipPath1000f192fd6c-73e6-417b-b021-e092afaf7300)"><path d=" M 3.5616778726429525 2.5423141313040087 C 3.5500243649189507 2.504828018574071 3.547896506000063 2.465333366116956 3.536242998276061 2.427827366855067 C 3.5289645275815476 2.4044010322153513 3.4921147838740803 2.4144039577873193 3.4994529141644506 2.437969498150701 C 3.511066648824548 2.4754556108806387 3.5132143942753884 2.514970149869702 3.524907675063295 2.552476149131594 C 3.5321463726939033 2.5758428241754525 3.568996116401371 2.5658995581993422 3.5616778726429525 2.5423141313040087 Z" fill="#facf0e" transform="matrix(1,0,0,1,0,0)" fill-rule="nonzero"></path></g><g clip-path="url(#SvgjsClipPath1000f192fd6c-73e6-417b-b021-e092afaf7300)"><path d=" M 3.356230111044548 2.1052678185900238 C 3.3448947878317816 2.0832136546550113 3.3294230659729522 2.0637049668098806 3.3180678562282337 2.041630916342913 C 3.3067126464835153 2.019556865875946 3.273899868762349 2.039045667189125 3.2851158727834013 2.0608611927407114 C 3.2963318768044543 2.0826767182923 3.3119428043869488 2.1024240445208577 3.323278127599716 2.124498094987822 C 3.3346134508124825 2.146572145454789 3.3674858881295053 2.127103230673564 3.356230111044548 2.1052678185900238 Z" fill="#facf0e" transform="matrix(1,0,0,1,0,0)" fill-rule="nonzero"></path></g><g clip-path="url(#SvgjsClipPath1000f192fd6c-73e6-417b-b021-e092afaf7300)"><path d=" M 3.4733220111792305 3.2088112496827272 L 3.4733220111792305 3.297863139764776 C 3.473654523754493 3.3081616402352663 3.4820992715194667 3.3163381290170024 3.492403138587388 3.3163381290170024 C 3.5027070056553105 3.3163381290170024 3.5111517534202834 3.3081616402352663 3.511484265995545 3.297863139764776 L 3.511484265995545 3.2088112496827272 C 3.5111517534202834 3.198512749212237 3.5027070056553105 3.190336260430501 3.492403138587388 3.190336260430501 C 3.4820992715194667 3.190336260430501 3.473654523754493 3.198512749212237 3.4733220111792313 3.2088112496827272 Z" fill="#facf0e" transform="matrix(1,0,0,1,0,0)" fill-rule="nonzero"></path></g><g clip-path="url(#SvgjsClipPath1000f192fd6c-73e6-417b-b021-e092afaf7300)"><path d=" M 3.587788889096221 3.259700884948461 L 3.587788889096221 3.3487328884985588 C 3.588254809299347 3.358938031465166 3.596664186446491 3.3669722346399586 3.606879959770353 3.3669722346399586 C 3.617095733094215 3.3669722346399586 3.6255051102413596 3.358938031465166 3.625971030444486 3.3487328884985588 L 3.625971030444486 3.259700884948461 C 3.6255051102413596 3.2494957419818573 3.617095733094215 3.2414615388070644 3.606879959770353 3.2414615388070644 C 3.596664186446491 3.2414615388070644 3.588254809299347 3.2494957419818573 3.587788889096221 3.259700884948461 Z" fill="#facf0e" transform="matrix(1,0,0,1,0,0)" fill-rule="nonzero"></path></g><g clip-path="url(#SvgjsClipPath1000f192fd6c-73e6-417b-b021-e092afaf7300)"><path d=" M 3.4605946307298083 3.424997738535331 C 3.4578685393707063 3.462490962858676 3.449522395653437 3.499361477272315 3.4358358984492923 3.534373664272551 C 3.428060264455974 3.5577801123803185 3.4649100081634403 3.5677432648883802 3.4726259825609027 3.5445157955681856 C 3.48728129411514 3.506205602059964 3.496090157187381 3.465908740623711 3.498756885546123 3.4249778520033796 C 3.4984190487073317 3.414679493653463 3.4899700275093197 3.406507358871045 3.479666130692948 3.4065127282805383 C 3.4693622338765766 3.406518097690029 3.460921734341292 3.4146990336817917 3.4605946307298083 3.424997738535331 Z" fill="#facf0e" transform="matrix(1,0,0,1,0,0)" fill-rule="nonzero"></path></g><g clip-path="url(#SvgjsClipPath1000f192fd6c-73e6-417b-b021-e092afaf7300)"><path d=" M 3.3715626271797112 3.6285761661302276 L 3.3715626271797112 3.654030927029072 C 3.372028547382838 3.664236069995676 3.380437924529982 3.6722702731704686 3.3906536978538444 3.6722702731704686 C 3.400869471177706 3.6722702731704686 3.4092788483248504 3.664236069995676 3.4097447685279767 3.654030927029072 L 3.4097447685279767 3.6285761661302276 C 3.4092788483248504 3.6183710231636206 3.400869471177706 3.610336819988828 3.3906536978538444 3.610336819988828 C 3.380437924529982 3.610336819988828 3.372028547382838 3.6183710231636206 3.3715626271797112 3.6285761661302276 Z" fill="#facf0e" transform="matrix(1,0,0,1,0,0)" fill-rule="nonzero"></path></g><g clip-path="url(#SvgjsClipPath1000f192fd6c-73e6-417b-b021-e092afaf7300)"><path d=" M 2.4710606873191954 2.690409134752203 C 2.3785087676135546 2.895459165711563 2.3053661030932826 3.1082848306642443 2.2268143018820057 3.3189826366980335 C 2.2183915729125525 3.3156901237512546 2.2088155000344503 3.318793403667443 2.2039249036049977 3.3264003131162134 C 1.9510875363644482 3.704542718187713 1.4943336704858134 3.8723253882686106 1.214768804301478 4.22564940146374 C 1.1996550400177892 4.244740472137872 1.2264819716213364 4.27192536131656 1.2417349416286907 4.252635425322905 C 1.5084928812357958 3.915518935668838 1.9334879555867321 3.7455288605412425 2.1944788009276923 3.4045742702203996 C 2.169899047434746 3.4687282222982665 2.1445636057276154 3.532563989864901 2.117637241464307 3.595803161472964 C 1.992590728548735 3.889527238407283 1.8278904709204336 4.189376367182884 1.5493398178656599 4.362588060486739 C 1.52847884584778 4.375534192787633 1.5476295761177685 4.408565722360275 1.5686098673273632 4.395540043931572 C 1.8381320348758272 4.227936352638244 2.002593654120703 3.947337386792392 2.1290521108048828 3.6644315832400842 C 2.2687152247053386 3.3520141662706755 2.3632557976062003 3.021559664820605 2.503972897700123 2.7096394111500013 C 2.514035482867947 2.687406268427419 2.481143159018972 2.667997013242049 2.4710606873191954 2.690409134752203 Z" fill="#facf0e" transform="matrix(1,0,0,1,0,0)" fill-rule="nonzero"></path></g><g clip-path="url(#SvgjsClipPath1000f192fd6c-73e6-417b-b021-e092afaf7300)"><path d=" M 2.7113496528978946 1.8665697755675053 C 2.696647821598873 1.8823302053619857 2.686359066793244 1.9016867827363089 2.681519854969561 1.9226895687366756 C 2.6792408767139655 1.930970772045345 2.684106641441634 1.9395314906606198 2.6923878447208938 1.9418104690230833 C 2.700669048000155 1.944089447385547 2.7092297666782224 1.9392236827683547 2.711508745147552 1.930942479518503 C 2.714915267072829 1.91512715919064 2.722464793852454 1.9005016668566554 2.7333839303009557 1.8885642799066666 C 2.7473045026675114 1.8741664307732544 2.7253298848603063 1.852132153370193 2.7113496528978946 1.8665697755675053 Z" fill="#facf0e" transform="matrix(1,0,0,1,0,0)" fill-rule="nonzero"></path></g><g clip-path="url(#SvgjsClipPath1000f192fd6c-73e6-417b-b021-e092afaf7300)"><path d=" M 2.75239545484728 1.9403289225782956 C 2.7441281229883656 1.9382359355880225 2.735680932743854 1.9430340799948218 2.73324472457729 1.9512068555561615 C 2.7286153674408267 1.964712749477422 2.725155631454211 1.9785916134545032 2.722903727962135 1.992690161208496 C 2.7207674621684697 2.000947525398776 2.7255748838846454 2.009408939811312 2.7337617744080482 2.011801118414582 C 2.7420388202014245 2.014052348846866 2.7505817416795186 2.0092036636836226 2.752892618146085 2.000943071968668 C 2.7551654593701564 1.9868468879987737 2.7586315462654003 1.9729692349018855 2.7632535012931934 1.9594597663163333 C 2.765516400510899 1.951181254065629 2.760663288279118 1.9426305325143967 2.7523954548472807 1.9403289225782956 Z" fill="#facf0e" transform="matrix(1,0,0,1,0,0)" fill-rule="nonzero"></path></g><g clip-path="url(#SvgjsClipPath1000f192fd6c-73e6-417b-b021-e092afaf7300)"><path d=" M 2.7892650850867002 1.789350371997026 C 2.7808247367191012 1.8041424472126608 2.7750303925852555 1.8202939291188507 2.7721427810758366 1.8370780486823584 C 2.7700602981201774 1.8453330435051247 2.7748456860093587 1.8537644412146348 2.78300082752175 1.8562088924203959 C 2.7912828169487702 1.8584611345113817 2.799831645333398 1.8536141352403461 2.8021515577917393 1.8453508459744816 C 2.804373283987025 1.8311845814017358 2.809086249054627 1.817523715512932 2.816072130158295 1.8050010726434231 C 2.819585844390814 1.7976875614982841 2.8168946229020064 1.7889016655963497 2.8098876086369353 1.7848107752205253 C 2.802880594371865 1.7807198848447041 2.793906613387212 1.782695310163099 2.7892650850866993 1.789350371997029 Z" fill="#facf0e" transform="matrix(1,0,0,1,0,0)" fill-rule="nonzero"></path></g><g clip-path="url(#SvgjsClipPath1000f192fd6c-73e6-417b-b021-e092afaf7300)"><path d=" M 2.820208528804357 1.6721590392025816 C 2.8062879564378016 1.6859205193135194 2.7914327170694913 1.698667786294893 2.7787252231520214 1.7136224583229676 C 2.7728412637755584 1.7197734042515946 2.7728412637755584 1.7294660167334928 2.7787252231520214 1.7356169626621227 C 2.784814417547266 1.7416716647432353 2.794650419627887 1.7416716647432353 2.8007396140231307 1.7356169626621227 C 2.813407334876697 1.7206622906340543 2.8282824607769586 1.7079150236526777 2.8422229196754665 1.6941336570097882 C 2.848291042727031 1.6880545508253482 2.84828213919054 1.6782072759021887 2.842203033070038 1.672139152786571 C 2.8361239269495355 1.6660710296709533 2.8262766520262845 1.6660799331036837 2.820208528846612 1.6721590391602512 Z" fill="#facf0e" transform="matrix(1,0,0,1,0,0)" fill-rule="nonzero"></path></g></g><g><path d=" M -1.2673883042020249 2.1992615118622028 A 3.3780155431531744 3.3780155431531744 0 0 1 5.488642782104324 2.1992615118622028 A 3.3780155431531744 3.3780155431531744 0 0 1 -1.2673883042020249 2.1992615118622028 Z M -1.217388304202025 2.1992615118622028 A 3.3280155431531746 3.3280155431531746 0 0 0 5.438642782104324 2.1992615118622028 A 3.3280155431531746 3.3280155431531746 0 0 0 -1.217388304202025 2.1992615118622028 Z" fill="#202020" fill-rule="nonzero"></path></g><g transform="matrix(-0.388715491596416,-0.9213578385149587,0.9213578385149587,-0.388715491596416,-5.5655709076763795,2.956467185955021)"><g clip-path="url(#SvgjsClipPath1002)"><path d=" M -1.8064413933358612 3.546950892497766 L -1.797653279050147 3.546950892497766 L -1.7701904219072897 3.3865678067834803 L -1.617496936193004 3.443690549640623 L -1.613102879050147 3.436000949640623 L -1.7383335076215756 3.331642092497766 L -1.613102879050147 3.228381749640623 L -1.617496936193004 3.220692149640623 L -1.7701904219072897 3.276716378212052 L -1.797653279050147 3.116333292497766 L -1.8064413933358612 3.116333292497766 L -1.8339042504787184 3.276716378212052 L -1.9865970496215755 3.220692149640623 L -1.9909911067644326 3.228381749640623 L -1.8657611647644325 3.331642092497766 L -1.9909911067644326 3.436000949640623 L -1.9865970496215755 3.443690549640623 L -1.8339042504787184 3.3865678067834803 L -1.8064413933358612 3.546950892497766 Z" fill="#202020" transform="matrix(1,0,0,1,0,0)" fill-rule="nonzero"></path></g></g><g transform="matrix(0.388715491596416,-0.9213578385149587,-0.9213578385149587,-0.388715491596416,6.744999839742442,10.166392878757279)"><g clip-path="url(#SvgjsClipPath1003)"><path d=" M 6.01888487123816 3.546950892497766 L 6.027672985523875 3.546950892497766 L 6.055135842666732 3.3865678067834803 L 6.207829328381017 3.443690549640623 L 6.212223385523874 3.436000949640623 L 6.086992756952446 3.331642092497766 L 6.212223385523874 3.228381749640623 L 6.207829328381017 3.220692149640623 L 6.055135842666732 3.276716378212052 L 6.027672985523875 3.116333292497766 L 6.01888487123816 3.116333292497766 L 5.991422014095303 3.276716378212052 L 5.838729214952446 3.220692149640623 L 5.834335157809589 3.228381749640623 L 5.959565099809589 3.331642092497766 L 5.834335157809589 3.436000949640623 L 5.838729214952446 3.443690549640623 L 5.991422014095303 3.3865678067834803 L 6.01888487123816 3.546950892497766 Z" fill="#202020" transform="matrix(1,0,0,1,0,0)" fill-rule="nonzero"></path></g></g></g><defs><clipPath id="SvgjsClipPath1001"><path d=" M 0 0 h 4.221254477902299 v 4.3985230237244055 h -4.221254477902299 Z"></path></clipPath><clipPath id="SvgjsClipPath1000f192fd6c-73e6-417b-b021-e092afaf7300"><path d=" M 0 0 L 4.221254477902299 0 L 4.221254477902299 4.3985230237244055 L 0 4.3985230237244055 Z"></path></clipPath><clipPath id="SvgjsClipPath1002"><path d=" M -2.122435893335861 3.0041017496406233 h 0.6407999999999998 v 0.6407999999999998 h -0.6407999999999998 Z"></path></clipPath><clipPath id="SvgjsClipPath1003"><path d=" M 5.70289037123816 3.0041017496406233 h 0.6407999999999998 v 0.6407999999999998 h -0.6407999999999998 Z"></path></clipPath></defs></svg>